# xmcd
#
# Track frame offsets: 
#        150
#        12713
#        26960
#        42541
#        62709
#        77169
#        94652
#        112872
#        127616
#        146541
#        162160
#        179713
#
# Disc length: 2658 seconds
#
# Revision: 2
# Processed by: cddbd v1.5.2PL0 Copyright (c) Steve Scherf et al.
# Submitted via: ExactAudioCopy v1.1
#
DISCID=a00a600c
DTITLE=Peter Karp - Shadows And Cracks
DYEAR=2007
DGENRE=Blues Rock
TTITLE0=Goodbye Baby
TTITLE1=Air, Fuel And Fire
TTITLE2=All I Really Want
TTITLE3=Dirty Weather
TTITLE4=Rubber Bands And Wire
TTITLE5=I Understand
TTITLE6=Shadows And Cracks
TTITLE7=I Ain't Deep
TTITLE8=The Lament
TTITLE9=Runnin'
TTITLE10=The Grave
TTITLE11=Strange Groove
EXTD=
EXTT0=
EXTT1=
EXTT2=
EXTT3=
EXTT4=
EXTT5=
EXTT6=
EXTT7=
EXTT8=
EXTT9=
EXTT10=
EXTT11=
PLAYORDER=
